<svg width="14" height="14" viewBox="0 0 14 14" fill="none" xmlns="http://www.w3.org/2000/svg">
<path fill-rule="evenodd" clip-rule="evenodd" d="M0.527293 2.52827L2.52729 0.52827C2.78764 0.26792 3.20975 0.26792 3.4701 0.52827C3.73045 0.788619 3.73045 1.21073 3.4701 1.47108L1.4701 3.47108C1.20975 3.73143 0.787643 3.73143 0.527293 3.47108C0.266944 3.21073 0.266944 2.78862 0.527293 2.52827ZM11.4701 0.52827L13.4701 2.52827C13.7305 2.78862 13.7305 3.21073 13.4701 3.47108C13.2098 3.73143 12.7876 3.73143 12.5273 3.47108L10.5273 1.47108C10.2669 1.21073 10.2669 0.788619 10.5273 0.52827C10.7876 0.26792 11.2098 0.26792 11.4701 0.52827ZM6.9987 13.6663C10.3124 13.6663 12.9987 10.9801 12.9987 7.66634C12.9987 4.35263 10.3124 1.66634 6.9987 1.66634C3.68499 1.66634 0.998698 4.35263 0.998698 7.66634C0.998698 10.9801 3.68499 13.6663 6.9987 13.6663ZM6.9987 12.333C4.42137 12.333 2.33203 10.2437 2.33203 7.66634C2.33203 5.08901 4.42137 2.99967 6.9987 2.99967C9.57603 2.99967 11.6654 5.08901 11.6654 7.66634C11.6654 10.2437 9.57603 12.333 6.9987 12.333ZM6.9987 4.33301C7.36689 4.33301 7.66536 4.63148 7.66536 4.99967V6.72353L8.80344 7.8616C9.06379 8.12195 9.06379 8.54406 8.80344 8.80441C8.54309 9.06476 8.12098 9.06476 7.86063 8.80441L6.52729 7.47108C6.40227 7.34605 6.33203 7.17649 6.33203 6.99967V4.99967C6.33203 4.63148 6.63051 4.33301 6.9987 4.33301Z" fill="black"/>
</svg>
