<svg width="14" height="14" viewBox="0 0 14 14" fill="none" xmlns="http://www.w3.org/2000/svg">
<path fill-rule="evenodd" clip-rule="evenodd" d="M10.3334 0.333252C10.7016 0.333252 11 0.631729 11 0.999919V1.66659H11.6667C12.7713 1.66659 13.6667 2.56202 13.6667 3.66659V11.6666C13.6667 12.7712 12.7713 13.6666 11.6667 13.6666H2.33337C1.2288 13.6666 0.333374 12.7712 0.333374 11.6666V3.66659C0.333374 2.56202 1.2288 1.66659 2.33337 1.66659H3.00004V0.999919C3.00004 0.631729 3.29852 0.333252 3.66671 0.333252C4.0349 0.333252 4.33337 0.631729 4.33337 0.999919V1.66659H9.66671V0.999919C9.66671 0.631729 9.96519 0.333252 10.3334 0.333252ZM1.66676 6.99991V11.6666C1.66676 12.0348 1.96524 12.3332 2.33343 12.3332H11.6668C12.035 12.3332 12.3334 12.0348 12.3334 11.6666V6.99991H1.66676ZM1.66676 5.66658H12.3334V3.66658C12.3334 3.29839 12.035 2.99991 11.6668 2.99991H11.0001V3.66658C11.0001 4.03477 10.7016 4.33325 10.3334 4.33325C9.96524 4.33325 9.66676 4.03477 9.66676 3.66658V2.99991H4.33343V3.66658C4.33343 4.03477 4.03495 4.33325 3.66676 4.33325C3.29857 4.33325 3.0001 4.03477 3.0001 3.66658V2.99991H2.33343C1.96524 2.99991 1.66676 3.29839 1.66676 3.66658V5.66658Z" fill="black" fill-opacity="0.5"/>
</svg>
