<svg width="14" height="14" viewBox="0 0 14 14" fill="none" xmlns="http://www.w3.org/2000/svg">
<path fill-rule="evenodd" clip-rule="evenodd" d="M5.33325 1.16484L6.99992 1.96867L8.66659 1.16484C9.73649 0.648829 10.93 0.648829 11.9999 1.16484L13.2475 1.76655C13.5006 1.88862 13.6666 2.1842 13.6666 2.51289V12.035C13.6666 12.4789 13.3681 12.8388 12.9999 12.8388C12.9151 12.8388 12.8311 12.8193 12.7523 12.7813L11.9999 12.4184C10.93 11.9024 9.73649 11.9024 8.66659 12.4184L6.99992 13.2223L5.33325 12.4184C4.26335 11.9024 3.06982 11.9024 1.99992 12.4184L1.24751 12.7813C0.905657 12.9462 0.517676 12.7457 0.380934 12.3335C0.349435 12.2386 0.333252 12.1373 0.333252 12.035V2.51289C0.333252 2.1842 0.499219 1.88862 0.752325 1.76655L1.99992 1.16484C3.06982 0.648829 4.26335 0.648829 5.33325 1.16484ZM2.50931 2.6024L1.66659 3.00884V10.8999C3.01687 10.3087 4.50494 10.3357 5.84264 10.9809L6.33325 11.2172V3.3305L4.82387 2.6024C4.08017 2.24372 3.253 2.24372 2.50931 2.6024ZM9.17597 2.6024L7.66659 3.32972V11.2172L8.1572 10.9809C9.4949 10.3357 10.983 10.3087 12.3333 10.8999V3.00884L11.4905 2.6024C10.7468 2.24372 9.91967 2.24372 9.17597 2.6024Z" fill="white"/>
</svg>
